<svg xmlns="http://www.w3.org/2000/svg" viewBox="0 0 64 64">
  <title>Cursed Factory</title>
  <defs>
    <linearGradient id="bg" x1="0%" y1="0%" x2="100%" y2="100%">
      <stop stop-color="#050606"/>
      <stop offset=".56" stop-color="#141a15"/>
      <stop offset="1" stop-color="#4d1c14"/>
    </linearGradient>
    <radialGradient id="glow" cx="74%" cy="20%" r="46%">
      <stop stop-color="#d6db55" stop-opacity=".46"/>
      <stop offset="1" stop-color="#d6db55" stop-opacity="0"/>
    </radialGradient>
    <linearGradient id="stone" x1="0%" y1="0%" x2="100%" y2="100%">
      <stop stop-color="#3b4139"/>
      <stop offset="1" stop-color="#12160f"/>
    </linearGradient>
  </defs>
  <rect width="64" height="64" rx="14" fill="url(#bg)"/>
  <rect width="64" height="64" rx="14" fill="url(#glow)"/>
  <circle cx="32" cy="32" r="24" fill="none" stroke="#d7d3c6" stroke-opacity=".14" stroke-dasharray="2 4"/>
  <path d="M17 20c-3-4 1-6-1-10M28 15c-3-4 1-6-1-10" fill="none" stroke="#d7d3c6" stroke-opacity=".28" stroke-width="1.4" stroke-linecap="round"/>
  <path d="M13 22h7v16h-7zM24 17h7v21h-7z" fill="url(#stone)" stroke="#a3a898" stroke-opacity=".78" stroke-width="1.2" stroke-linejoin="round"/>
  <path d="M9 53V36h27l6-7 6 7 6-7v24H9Z" fill="url(#stone)" stroke="#b6bcaa" stroke-opacity=".82" stroke-width="1.3" stroke-linejoin="round"/>
  <path d="M14 41h5v5h-5zM23 41h5v5h-5zM45 41h5v5h-5z" fill="#d6db55" fill-opacity=".34"/>
  <path d="M32 41h6v12h-6z" fill="#d6db55" fill-opacity=".82"/>
  <path d="M35 44v9" fill="none" stroke="#12160f" stroke-opacity=".7" stroke-width="1.4"/>
  <path d="M6 56h52" fill="none" stroke="#c43b2c" stroke-opacity=".6" stroke-width="2.4" stroke-linecap="round"/>
</svg>
